# AST/ASF file generated using VICON BodyLanguage
# -----------------------------------------------
:version 1.10
:name VICON
:units
  mass 1.0
  length 0.45
  angle deg
:documentation
   .ast/.asf automatically generated from VICON data using
   VICON BodyBuilder and BodyLanguage model FoxedUp or BRILLIANT.MOD
:root
   order TX TY TZ RX RY RZ
   axis XYZ
   position 0 0 0  
   orientation 0 0 0 
:bonedata
  begin
     id 1 
     name lhipjoint
     direction 0.623529 -0.717805 0.309788 
     length 2.23224 
     axis 0 0 0  XYZ
  end
  begin
     id 2 
     name lfemur
     direction 0.34202 -0.939693 0  
     length 7.11402  
     axis 0 0 20  XYZ
    dof rx ry rz
    limits (-160.0 20.0)
           (-70.0 70.0)
           (-60.0 70.0)
  end
  begin
     id 3 
     name ltibia
     direction 0.34202 -0.939693 0   
     length 6.78496   
     axis 0 0 20   XYZ
    dof rx
    limits (-10.0 170.0)
  end
  begin
     id 4 
     name lfoot
     direction 0.125078 -0.343648 0.930732   
     length 1.84054   
     axis -90 7.62852e-016 20   XYZ
    dof rx rz
    limits (-45.0 90.0)
           (-70.0 20.0)
  end
  begin
     id 5 
     name ltoes
     direction 1.53565e-011 -4.21893e-011 1   
     length 0.916474   
     axis -90 7.62852e-016 20   XYZ
    dof rx
    limits (-90.0 20.0)
  end
  begin
     id 6 
     name rhipjoint
     direction -0.564688 -0.757748 0.327026   
     length 2.11457  
     axis 0 0 0  XYZ 
  end
  begin
     id 7 
     name rfemur
     direction -0.34202 -0.939693 0   
     length 7.14609   
     axis 0 0 -20   XYZ
    dof rx ry rz
    limits (-160.0 20.0)
           (-70.0 70.0)
           (-70.0 60.0)
  end
  begin
     id 8 
     name rtibia
     direction -0.34202 -0.939693 0   
     length 6.78101   
     axis 0 0 -20   XYZ
    dof rx
    limits (-10.0 170.0)
 end
 begin
     id 9 
     name rfoot
     direction -0.0992671 -0.272734 0.956955   
     length 1.96168  
     axis -90 -7.62852e-016 -20   XYZ
    dof rx rz
    limits (-45.0 90.0)
           (-20.0 70.0)
  end
  begin
     id 10 
     name rtoes
     direction -1.5356e-011 -4.21891e-011 1   
     length 0.982933   
     axis -90 -7.62852e-016 -20   XYZ
    dof rx
    limits (-90.0 20.0)
  end
  begin
     id 11 
     name lowerback
     direction -0.00596953 0.998668 0.0512524   
     length 1.87557   
     axis 0 0 0   XYZ
    dof rx ry rz
    limits (-20.0 45.0)
           (-30.0 30.0)
           (-30.0 30.0)
  end
  begin
     id 12 
     name upperback
     direction 0.00584879 0.999652 0.0257308   
     length 1.87883   
     axis 0 0 0   XYZ
    dof rx ry rz
    limits (-20.0 45.0)
           (-30.0 30.0)
           (-30.0 30.0)
  end
  begin
     id 13 
     name thorax
     direction 0.010104 0.999947 0.00178881   
     length 1.87779   
     axis 0 0 0   XYZ
    dof rx ry rz
    limits (-20.0 45.0)
           (-30.0 30.0)
           (-30.0 30.0)
  end
  begin
     id 14 
     name lowerneck
     direction 0.0120771 0.995934 -0.0892773   
     length 1.40897   
     axis 0 0 0   XYZ
    dof rx ry rz
    limits (-20.0 45.0)
           (-30.0 30.0)
           (-30.0 30.0)
  end
  begin
     id 15 
     name upperneck
     direction -0.030568 0.999465 -0.0116366   
     length 1.38661   
     axis 0 0 0   XYZ
    dof rx ry rz
    limits (-20.0 45.0)
           (-30.0 30.0)
           (-30.0 30.0)
  end
  begin
     id 16
     name head
     direction -0.0170715 0.999854 -0.00104426  
     length 1.47052  
     axis 0 0 0   XYZ
    dof rx ry rz
    limits (-20.0 45.0)
           (-30.0 30.0)
           (-30.0 30.0)
  end
  begin
     id 17 
     name lclavicle
     direction 0.977763 0.206143 0.038532  
     length 3.02424  
     axis 0 0 0   XYZ
    dof ry rz
    limits (-20.0 10.0)
           (0.0 20.0)
  end
  begin
     id 18 
     name lhumerus
     direction 1 -4.48965e-011 -2.62654e-027   
     length 4.68382   
     axis 180 -30 -90   XYZ
    dof rx ry rz
    limits (-60.0 90.0)
           (-90.0 90.0)
           (-90.0 90.0)
  end
  begin
     id 19
     name lradius
     direction 1 -4.48973e-011 -1.54954e-027   
     length 2.98124   
     axis 180 -30 -90   XYZ
    dof rx
    limits (-10.0 170.0)
  end
  begin
     id 20
     name lwrist
     direction 1 -4.48959e-011 7.20928e-028   
     length 1.49062   
     axis -5.52449e-016 90 90   XYZ
    dof ry
    limits (-180.0 0.0)
 end
  begin
     id 21 
     name lhand
     direction 1 -4.48971e-011 1.44186e-027   
     length 0.707595   
     axis -9.20027e-016 90 90   XYZ
    dof rx rz
    limits (-90.0 90.0)
           (-45.0 45.0)
  end
  begin
     id 22 
     name lfingers
     direction 1 -4.48985e-011 2.88371e-027   
     length 0.570481   
     axis -1.84005e-015 90 90   XYZ
    dof rx
    limits (0.0 90.0)
  end
  begin
     id 23
     name lthumb
     direction 0.707107 -6.34929e-011 0.707107   
     length 0.819101   
     axis -90 45 2.85299e-015   XYZ
    dof rx rz
    limits (-45.0 45.0)
           (-45.0 45.0)
  end
  begin
     id 24 
     name rclavicle
     direction -0.958661 0.284411 -0.00895327   
     length 3.11921  
     axis 0 0 0   XYZ 
    dof ry rz
    limits (-10.0 20.0)
           (-20.0 0.0)
  end
  begin
     id 25 
     name rhumerus
     direction -1 -4.48963e-011 -4.22193e-027  
     length 4.75876   
     axis 180 30 90   XYZ
    dof rx ry rz
    limits (-90.0 60.0)
           (-90.0 90.0)
           (-90.0 90.0)
  end
  begin
     id 26 
     name rradius
     direction -1 -4.48968e-011 -1.07616e-027   
     length 2.93293   
     axis 180 30 90   XYZ
    dof rx
    limits (-10.0 170.0)
  end
  begin
     id 27 
     name rwrist
     direction -1 -4.48965e-011 7.20928e-028   
     length 1.46647   
     axis -5.52449e-016 -90 -90   XYZ
    dof ry
    limits (-180.0 0.0)
  end
  begin
     id 28
     name rhand
     direction -1 -4.48971e-011 1.44186e-027   
     length 0.831748   
     axis -9.20027e-016 -90 -90   XYZ
    dof rx rz
    limits (-90.0 90.0)
           (-45.0 45.0)
  end
  begin
     id 29
     name rfingers
     direction -1 -4.48961e-011 2.88371e-027   
     length 0.670577   
     axis -1.84005e-015 -90 -90   XYZ
    dof rx
    limits (0.0 90.0)
  end
  begin
     id 30
     name rthumb
     direction -0.707107 -6.34929e-011 0.707107   
     length 0.962818   
     axis -90 -45 -2.85299e-015   XYZ
    dof rx rz
    limits (-45.0 45.0)
           (-45.0 45.0)
  end
:hierarchy
  begin
    root lhipjoint rhipjoint lowerback
    lhipjoint lfemur
    lfemur ltibia
    ltibia lfoot
    lfoot ltoes
    rhipjoint rfemur
    rfemur rtibia
    rtibia rfoot
    rfoot rtoes
    lowerback upperback
    upperback thorax
    thorax lowerneck lclavicle rclavicle
    lowerneck upperneck
    upperneck head
    lclavicle lhumerus
    lhumerus lradius
    lradius lwrist
    lwrist lhand lthumb
    lhand lfingers
    rclavicle rhumerus
    rhumerus rradius
    rradius rwrist
    rwrist rhand rthumb
    rhand rfingers
  end

#!OML:ASF E:\id_vita\Project 1\Capture day 1\Session 1\Female.ASF
:FULLY-SPECIFIED
:DEGREES
898
root 33.1611 16.8774 -9.77452 -146.132 72.5889 186.854
lowerback -12.5253 1.60379 -5.6658
upperback -4.70855 3.07862 -0.675135
thorax 1.813 1.69343 2.90574
lowerneck 2.64757 0.864844 -5.75301
upperneck -17.8154 2.58138 7.87417
head -5.95418 1.33144 3.28715
rclavicle -3.95581e-014 -5.1684e-015
rhumerus 80.0097 -2.47193 -44.1928
rradius 49.9874
rwrist -4.94666
rhand -22.5463 18.743
rfingers 7.12502
rthumb 3.88125 -11.2014
lclavicle -3.95581e-014 -5.1684e-015
lhumerus 76.9019 11.2926 34.3714
lradius 42.9387
lwrist -19.7161
lhand -34.4618 25.4787
lfingers 7.12502
lthumb -7.62533 55.3212
rfemur -12.9495 4.62148 23.2318
rtibia 19.8396
rfoot 2.3649 -3.62383
rtoes -16.8692
lfemur -42.9808 -6.61662 -11.9609
ltibia 25.0721
lfoot -19.1219 -6.82886
ltoes -12.7589
899
root 33.1524 16.8749 -9.76319 -146.45 72.5811 186.454
lowerback -12.4715 1.50865 -5.87789
upperback -4.79854 2.9766 -0.677604
thorax 1.68692 1.65287 3.00358
lowerneck 3.92105 0.919061 -5.98228
upperneck -19.1613 2.74051 8.12757
head -6.61979 1.38537 3.40842
rclavicle -2.21645e-014 9.54166e-015
rhumerus 80.0491 -2.11796 -44.457
rradius 49.9079
rwrist -4.33727
rhand -23.3241 18.5209
rfingers 7.12502
rthumb 3.13012 -11.4359
lclavicle -2.21645e-014 9.54166e-015
lhumerus 76.7064 11.1526 34.0848
lradius 42.897
lwrist -20.2375
lhand -34.4554 26.914
lfingers 7.12502
lthumb -7.61916 56.7568
rfemur -13.1075 4.45146 23.14
rtibia 19.9454
rfoot 2.11511 -3.54995
rtoes -16.6589
lfemur -43.069 -6.6069 -12.054
ltibia 24.9796
lfoot -19.1366 -6.94415
ltoes -11.9537
900
root 33.1381 16.8759 -9.75494 -146.416 72.4647 186.48
lowerback -12.3107 1.47544 -5.78937
upperback -4.85715 2.91123 -0.698309
thorax 1.55053 1.62545 2.9153
lowerneck 3.46716 0.888654 -6.06865
upperneck -18.6698 2.69375 8.27233
head -6.38152 1.366 3.46913
rclavicle -6.75868e-015 -2.42517e-014
rhumerus 80.264 -1.86891 -45.2813
rradius 49.384
rwrist -3.70789
rhand -22.8829 18.8479
rfingers 7.12502
rthumb 3.55616 -11.1022
lclavicle -6.75868e-015 -2.42517e-014
lhumerus 77.1965 11.0604 35.0143
lradius 42.3102
lwrist -21.025
lhand -33.0572 24.5638
lfingers 7.12502
lthumb -6.26941 54.451
rfemur -13.1859 3.87106 23.222
rtibia 19.9656
rfoot 1.76284 -3.0414
rtoes -16.1812
lfemur -43.1559 -6.61325 -12.0137
ltibia 24.9536
lfoot -19.1354 -7.11806
ltoes -11.079
901
root 33.149 16.8687 -9.73071 -146.809 72.5704 185.859
lowerback -12.7693 1.36933 -6.4331
upperback -4.84074 2.88811 -0.689522
thorax 1.78229 1.61575 3.30275
lowerneck 4.0869 0.814586 -5.99744
upperneck -19.3703 2.64156 8.30929
head -6.70944 1.32374 3.47968
rclavicle 9.14409e-015 -2.5842e-014
rhumerus 80.476 -1.72533 -46.1287
rradius 49.104
rwrist -3.64412
rhand -22.3582 20.4928
rfingers 7.12502
rthumb 4.06291 -9.44819
lclavicle 9.14409e-015 -2.5842e-014
lhumerus 78.3519 10.7761 36.9277
lradius 41.1185
lwrist -22.9799
lhand -33.5657 23.4276
lfingers 7.12502
lthumb -6.76034 53.2996
rfemur -13.4232 4.86718 22.9957
rtibia 20.0445
rfoot 2.09013 -3.80361
rtoes -16.4596
lfemur -43.3677 -6.57314 -12.0997
ltibia 24.8506
lfoot -18.9186 -7.28305
ltoes -10.2522
902
root 33.1258 16.8691 -9.72772 -145.882 72.2883 186.961
lowerback -12.4409 1.39321 -5.83974
upperback -4.90939 2.82047 -0.685999
thorax 1.57132 1.58376 2.94928
lowerneck 4.64355 0.841223 -5.83552
upperneck -19.9015 2.71812 8.29977
head -6.98362 1.33959 3.44904
rclavicle 9.74045e-015 -1.19271e-015
rhumerus 80.4135 -1.46149 -46.509
rradius 49.3217
rwrist -4.01641
rhand -22.7501 20.9059
rfingers 7.12502
rthumb 3.68445 -9.04202
lclavicle 9.74045e-015 -1.19271e-015
lhumerus 77.6989 10.8468 35.4942
lradius 41.538
lwrist -22.3507
lhand -34.0179 25.016
lfingers 7.12502
lthumb -7.19681 54.8736
rfemur -13.3729 4.06722 23.4621
rtibia 20.0754
rfoot 1.53985 -3.12755
rtoes -16.2875
lfemur -43.3112 -6.67145 -11.6214
ltibia 24.8057
lfoot -18.6265 -7.47313
ltoes -9.30561
903
root 33.1155 16.8685 -9.71985 -146.183 72.3633 186.514
lowerback -12.4768 1.39916 -5.91295
upperback -4.98585 2.84927 -0.864132
thorax 1.51385 1.60407 2.80757
lowerneck 4.47818 0.774238 -5.77145
upperneck -19.7739 2.65314 8.4068
head -6.90777 1.30047 3.4766
rclavicle -8.15017e-015 -1.51076e-014
rhumerus 80.2055 -1.34344 -46.5336
rradius 49.487
rwrist -4.03116
rhand -24.0848 20.8078
rfingers 7.12502
rthumb 2.39542 -9.15853
lclavicle -8.15017e-015 -1.51076e-014
lhumerus 78.6411 10.5936 36.9299
lradius 40.4992
lwrist -24.1247
lhand -33.5789 23.8636
lfingers 7.12502
lthumb -6.77306 53.7352
rfemur -13.5795 4.06597 23.2864
rtibia 20.0807
rfoot 1.50096 -3.04565
rtoes -15.995
lfemur -43.4371 -6.78827 -11.6604
ltibia 24.7412
lfoot -18.3423 -7.43497
ltoes -9.041
